<svg width="15" height="15" viewBox="0 0 15 15" fill="none" xmlns="http://www.w3.org/2000/svg">
<path d="M6.37764 1.00469L7.12086 0.242157C7.43555 -0.080719 7.94443 -0.080719 8.25578 0.242157L14.764 6.91608C15.0787 7.23895 15.0787 7.76105 14.764 8.08049L8.25578 14.7578C7.94108 15.0807 7.43221 15.0807 7.12086 14.7578L6.37764 13.9953C6.05959 13.669 6.06629 13.1366 6.39103 12.8172L10.4252 8.87394H0.803482C0.358219 8.87394 0 8.50641 0 8.04958V6.95042C0 6.49359 0.358219 6.12606 0.803482 6.12606H10.4252L6.39103 2.18285C6.06294 1.86341 6.05624 1.33101 6.37764 1.00469Z" fill="#3772FF"/>
</svg>
