<svg width="36" height="32" viewBox="0 0 36 32" fill="none" xmlns="http://www.w3.org/2000/svg">
<path d="M5.97651 20.1972C5.11024 16.9356 5.19975 13.9081 6.24609 11.1149" stroke="#3772FF" stroke-width="3"/>
<path d="M9.57138 12.0248L8.51357 7.61842L4.10715 8.67623" stroke="#3772FF" stroke-width="3"/>
<path d="M28.5474 20.877C29.7822 17.812 29.8928 14.6202 28.8789 11.3011" stroke="#3772FF" stroke-width="3"/>
<path d="M30.8199 23.0952L26.4129 24.1534L25.3551 19.747" stroke="#3772FF" stroke-width="3"/>
<path d="M20.2664 26.7757C19.8816 28.8517 17.8853 30.2237 15.8092 29.8389C13.7332 29.4541 12.3617 27.4584 12.7465 25.3824C13.1313 23.3063 15.1276 21.9344 17.2036 22.3192C19.2796 22.704 20.6512 24.6996 20.2664 26.7757Z" stroke="#3772FF" stroke-width="3"/>
<path d="M21.9933 6.55247C21.6085 8.6285 19.6123 10.0005 17.5362 9.61567C15.4602 9.23087 14.0882 7.23458 14.473 5.15855C14.8578 3.08252 16.8541 1.71055 18.9301 2.09535C21.0062 2.48015 22.3781 4.47644 21.9933 6.55247Z" stroke="#3772FF" stroke-width="3"/>
</svg>
