<svg width="17" height="16" viewBox="0 0 17 16" fill="none" xmlns="http://www.w3.org/2000/svg">
<path fill-rule="evenodd" clip-rule="evenodd" d="M5.36323 6.80453C5.62358 7.06488 6.04569 7.06488 6.30604 6.80453L8.16797 4.94261L10.0299 6.80453C10.2902 7.06488 10.7124 7.06488 10.9727 6.80453C11.2331 6.54418 11.2331 6.12207 10.9727 5.86173L8.63937 3.52839C8.37902 3.26804 7.95691 3.26804 7.69656 3.52839L5.36323 5.86173C5.10288 6.12208 5.10288 6.54418 5.36323 6.80453Z" fill="#777E91"/>
<path fill-rule="evenodd" clip-rule="evenodd" d="M5.36323 9.1951C5.62358 8.93475 6.04569 8.93475 6.30604 9.1951L8.16797 11.057L10.0299 9.1951C10.2902 8.93475 10.7124 8.93475 10.9727 9.1951C11.2331 9.45545 11.2331 9.87756 10.9727 10.1379L8.63937 12.4712C8.37902 12.7316 7.95691 12.7316 7.69656 12.4712L5.36323 10.1379C5.10288 9.87756 5.10288 9.45545 5.36323 9.1951Z" fill="#777E91"/>
</svg>
