<svg width="137" height="32" viewBox="0 0 137 32" fill="none" xmlns="http://www.w3.org/2000/svg">
<g clip-path="url(#clip0_303_90570)">
<path fillRule="evenodd" clipRule="evenodd" d="M33.5622 31.5767V0.426575H34.6489V31.5767H33.5622ZM33.5622 31.5767L32.421 0.426575H31.3343L32.4718 31.5767H33.5622ZM32.4754 31.5767L30.1931 0.426575H29.1064L31.3886 31.5767H32.4754ZM31.3596 31.5767L27.9254 0.426575H26.8386L30.2583 31.5767H31.3596ZM30.2366 31.5767L25.6794 0.426575H24.5926L29.1462 31.5767H30.2366ZM29.1245 31.5767L23.4188 0.426575H22.314L28.0196 31.5767H29.1245ZM28.0087 31.5767L21.1257 0.426575H20.01L26.8929 31.5767H28.0087ZM26.8821 31.5767L18.7964 0.426575H17.6734L25.7264 31.5767H26.8821ZM25.7482 31.5767L16.5069 0.426575H15.373L24.6143 31.5767H25.7482ZM24.5998 31.5767L14.1594 0.426575H13.0111L23.4152 31.5767H24.5998ZM0.03125 0.426575V31.5767H1.11803V0.426575H0.03125ZM1.11803 0.426575L2.33523 31.5767H3.42202L2.20482 0.426575H1.11803ZM2.20482 0.426575L4.65008 31.5767H5.73687L3.2916 0.426575H2.20482ZM3.30972 0.426575L6.9106 31.5767H7.99738L4.37839 0.426575H3.30972ZM4.42548 0.426575L9.30514 31.5767H10.3919L5.50864 0.426575H4.42548ZM5.51227 0.426575L11.562 31.5767H12.6706L6.62079 0.426575H5.51227ZM6.59905 0.426575L13.9747 31.5767H15.0941L7.71844 0.426575H6.59905ZM7.71482 0.426575L16.5178 31.5767H17.648L8.84507 0.426575H7.71482ZM8.8342 0.426575L18.9268 31.5767H20.0716L9.99344 0.426575H8.8342ZM9.98619 0.426575L14.5652 12.0647L22.1727 31.4041L22.2379 31.5767H23.408L23.3174 31.3487L15.7099 12.0061L11.1599 0.426575H9.98619Z" fill="url(#paint0_linear_303_90570)"/>
<path fillRule="evenodd" clipRule="evenodd" d="M105.94 22.8139C104.694 25.5001 102.602 27.8005 99.921 29.4325C97.2402 31.0645 94.0873 31.957 90.8499 32.0002C87.6125 32.0435 84.4316 31.2356 81.698 29.6759C78.9644 28.1162 76.7973 25.8727 75.4629 23.2209C73.4089 19.1863 73.4053 12.843 75.4629 8.80513C76.7929 6.14862 78.958 3.89969 81.6918 2.33517C84.4255 0.770648 87.6085 -0.041168 90.849 -0.00033237C94.0895 0.0405033 97.2459 0.932202 99.9298 2.56499C102.614 4.19779 104.708 6.5004 105.954 9.18937L106.045 9.37824H102.473L102.43 9.3066C101.337 7.4538 99.7249 5.89016 97.7522 4.77108C95.7795 3.652 93.5153 3.01643 91.1847 2.92754C88.8541 2.83864 86.5382 3.29951 84.4671 4.26435C82.396 5.2292 80.6419 6.66441 79.379 8.42739C76.4265 12.5141 76.4265 19.4989 79.379 23.5726C80.6416 25.3357 82.3955 26.7712 84.4664 27.7363C86.5372 28.7014 88.8531 29.1626 91.1837 29.074C93.5142 28.9855 95.7785 28.3502 97.7514 27.2314C99.7243 26.1126 101.337 24.5493 102.43 22.6966L102.473 22.625H106.045L105.94 22.8139ZM66.3557 28.0729V0.426584H69.616V31.5767H65.1747L43.0768 4.1616V31.5767H39.8164V0.426584H44.0585L66.3557 28.0729ZM121.655 13.7222L132.921 0.423325H137L123.694 16.1319L136.779 31.5767H132.704L121.655 18.5513L110.61 31.5767H106.625L119.604 16.1286L106.302 0.426584H110.381L121.655 13.7222Z" fill="black"/>
</g>
<defs>
<linearGradient id="paint0_linear_303_90570" x1="17.3256" y1="31.7232" x2="17.3256" y2="-4.22021" gradientUnits="userSpaceOnUse">
<stop stop-color="#22B4FB"/>
<stop offset="0.68" stop-color="#006EF3"/>
</linearGradient>
<clipPath id="clip0_303_90570">
<rect width="137" height="32" fill="white"/>
</clipPath>
</defs>
</svg>
