<svg width="57" height="58" viewBox="0 0 57 58" fill="none" xmlns="http://www.w3.org/2000/svg">
<path d="M13.6488 29.3374L13.6516 29.4379L22.6363 29.3077L22.6551 28.884L22.6558 28.8685L22.6569 28.8531L22.677 28.5877L22.6781 28.5733L22.6796 28.5589C22.7814 27.5863 23.1445 26.6527 23.7499 25.8532C25.559 23.4631 28.9629 22.993 31.3527 24.8018C33.7428 26.6107 34.2137 30.0156 32.4048 32.4055C30.5958 34.7957 27.192 35.2658 24.8022 33.4573C24.8021 33.4573 24.802 33.4572 24.8019 33.4571L24.7615 33.4266L24.7003 33.5076L24.7336 33.5328L24.9121 33.6632C27.3346 35.358 30.6843 34.8446 32.4849 32.4664L13.6488 29.3374ZM13.6488 29.3374L21.6251 29.2234L22.483 29.2112L22.6013 28.3615C22.7298 27.4389 23.0907 26.557 23.6688 25.7929M13.6488 29.3374L32.485 32.4663C34.3276 30.0312 33.8486 26.5632 31.4145 24.7211C28.9797 22.8786 25.5112 23.3584 23.6688 25.7929M23.6688 25.7929L22.8714 25.1895L23.6688 25.7929Z" fill="#3772FF" stroke="#3772FF" stroke-width="2"/>
<mask id="path-2-inside-1_219_94914" fill="white">
<path d="M11.9401 35.5745C12.9113 37.9244 14.407 40.0999 16.418 41.9185C18.4493 43.7554 20.8155 45.0482 23.3208 45.7784L24.2746 41.3437L26.5829 41.8391L25.6275 46.2866C28.9731 46.7923 32.4512 46.3371 35.6284 44.8833L35.9874 44.715L37.0489 44.2006L38.0795 46.3251L37.0164 46.8396C29.7287 50.372 20.9443 49.1943 14.8347 43.6693C6.92296 36.5146 6.04687 24.482 12.6452 16.2739L12.6466 16.2723L14.2299 14.5215C21.736 7.13278 33.7957 6.79679 41.7083 13.9522C49.6208 21.1076 50.4955 33.1403 43.8964 41.3492L42.3131 43.1L37.2313 38.5045L38.8146 36.7537L42.1417 39.7624C45.6623 35.3133 46.7163 29.6166 45.3935 24.429L41.065 25.8247L40.3407 23.5777L44.6582 22.1848C43.6889 19.7828 42.1743 17.5577 40.1243 15.7038C37.9964 13.7795 35.5281 12.468 32.9377 11.7614L31.9584 16.3997L29.6483 15.9126L30.6227 11.2939C25.4163 10.5998 19.984 12.2324 15.9846 16.1083L19.3117 19.117L17.7285 20.8678L14.4007 17.8599C10.8486 22.35 9.8075 28.1108 11.1865 33.3364"/>
</mask>
<path d="M11.9401 35.5745C12.9113 37.9244 14.407 40.0999 16.418 41.9185C18.4493 43.7554 20.8155 45.0482 23.3208 45.7784L24.2746 41.3437L26.5829 41.8391L25.6275 46.2866C28.9731 46.7923 32.4512 46.3371 35.6284 44.8833L35.9874 44.715L37.0489 44.2006L38.0795 46.3251L37.0164 46.8396C29.7287 50.372 20.9443 49.1943 14.8347 43.6693C6.92296 36.5146 6.04687 24.482 12.6452 16.2739L12.6466 16.2723L14.2299 14.5215C21.736 7.13278 33.7957 6.79679 41.7083 13.9522C49.6208 21.1076 50.4955 33.1403 43.8964 41.3492L42.3131 43.1L37.2313 38.5045L38.8146 36.7537L42.1417 39.7624C45.6623 35.3133 46.7163 29.6166 45.3935 24.429L41.065 25.8247L40.3407 23.5777L44.6582 22.1848C43.6889 19.7828 42.1743 17.5577 40.1243 15.7038C37.9964 13.7795 35.5281 12.468 32.9377 11.7614L31.9584 16.3997L29.6483 15.9126L30.6227 11.2939C25.4163 10.5998 19.984 12.2324 15.9846 16.1083L19.3117 19.117L17.7285 20.8678L14.4007 17.8599C10.8486 22.35 9.8075 28.1108 11.1865 33.3364" fill="#3772FF"/>
<path d="M23.3208 45.7784L22.7612 47.6985L24.8242 48.2999L25.2761 46.199L23.3208 45.7784ZM24.2746 41.3437L24.6943 39.3883L22.7397 38.9688L22.3193 40.9232L24.2746 41.3437ZM26.5829 41.8391L28.5383 42.2592L28.9584 40.3034L27.0026 39.8837L26.5829 41.8391ZM25.6275 46.2866L23.6721 45.8665L23.2254 47.9461L25.3286 48.2641L25.6275 46.2866ZM35.6284 44.8833L36.4606 46.702L36.469 46.6981L36.4773 46.6942L35.6284 44.8833ZM35.9874 44.715L36.8363 46.5259L36.848 46.5204L36.8596 46.5148L35.9874 44.715ZM37.0489 44.2006L38.8484 43.3277L37.9758 41.5288L36.1767 42.4008L37.0489 44.2006ZM38.0795 46.3251L38.9508 48.1253L40.7525 47.2532L39.8789 45.4522L38.0795 46.3251ZM37.0164 46.8396L36.145 45.0394L36.1441 45.0399L37.0164 46.8396ZM12.6452 16.2739L11.1618 14.9324L11.1229 14.9755L11.0865 15.0208L12.6452 16.2739ZM14.2299 14.5215L12.8269 13.0962L12.7855 13.1369L12.7465 13.18L14.2299 14.5215ZM43.8964 41.3492L45.3798 42.6907L45.4188 42.6476L45.4552 42.6023L43.8964 41.3492ZM42.3131 43.1L40.9716 44.5834L42.455 45.9249L43.7965 44.4415L42.3131 43.1ZM37.2313 38.5045L35.7479 37.163L34.4064 38.6464L35.8898 39.9879L37.2313 38.5045ZM38.8146 36.7537L40.156 35.2703L38.6726 33.9288L37.3312 35.4122L38.8146 36.7537ZM42.1417 39.7624L40.8002 41.2458L42.3845 42.6786L43.71 41.0035L42.1417 39.7624ZM45.3935 24.429L47.3315 23.9349L46.8056 21.8723L44.7798 22.5255L45.3935 24.429ZM41.065 25.8247L39.1614 26.4383L39.7751 28.342L41.6787 27.7282L41.065 25.8247ZM40.3407 23.5777L39.7267 21.6743L37.8237 22.2882L38.4371 24.1913L40.3407 23.5777ZM44.6582 22.1848L45.2723 24.0882L47.3169 23.4286L46.5129 21.4364L44.6582 22.1848ZM32.9377 11.7614L33.464 9.83194L31.4188 9.27406L30.9808 11.3483L32.9377 11.7614ZM31.9584 16.3997L31.5458 18.3567L33.5022 18.7693L33.9153 16.8129L31.9584 16.3997ZM29.6483 15.9126L27.6914 15.4998L27.2786 17.4569L29.2357 17.8696L29.6483 15.9126ZM30.6227 11.2939L32.5796 11.7067L33.0247 9.59648L30.887 9.31145L30.6227 11.2939ZM15.9846 16.1083L14.5928 14.6721L13.0587 16.1588L14.6432 17.5917L15.9846 16.1083ZM19.3117 19.117L20.7951 20.4585L22.1366 18.9751L20.6532 17.6336L19.3117 19.117ZM17.7285 20.8678L16.3873 22.3516L17.8707 23.6924L19.2119 22.2093L17.7285 20.8678ZM14.4007 17.8599L15.7418 16.3762L14.1572 14.9439L12.8321 16.6191L14.4007 17.8599ZM10.0917 36.3384C11.174 38.9571 12.8407 41.38 15.0766 43.4019L17.7595 40.4351C15.9732 38.8198 14.6485 36.8917 13.7884 34.8106L10.0917 36.3384ZM15.0766 43.4019C17.3362 45.4454 19.971 46.8853 22.7612 47.6985L23.8805 43.8583C21.6601 43.2112 19.5625 42.0655 17.7595 40.4351L15.0766 43.4019ZM25.2761 46.199L26.2299 41.7643L22.3193 40.9232L21.3655 45.3579L25.2761 46.199ZM23.8549 43.2992L26.1632 43.7946L27.0026 39.8837L24.6943 39.3883L23.8549 43.2992ZM24.6275 41.4191L23.6721 45.8665L27.5829 46.7066L28.5383 42.2592L24.6275 41.4191ZM25.3286 48.2641C29.0516 48.8269 32.9234 48.3205 36.4606 46.702L34.7963 43.0647C31.979 44.3538 28.8946 44.7577 25.9264 44.309L25.3286 48.2641ZM36.4773 46.6942L36.8363 46.5259L35.1385 42.9041L34.7795 43.0724L36.4773 46.6942ZM36.8596 46.5148L37.9212 46.0003L36.1767 42.4008L35.1151 42.9153L36.8596 46.5148ZM35.2495 45.0734L36.28 47.1979L39.8789 45.4522L38.8484 43.3277L35.2495 45.0734ZM37.2081 44.5249L36.145 45.0394L37.8878 48.6398L38.9508 48.1253L37.2081 44.5249ZM36.1441 45.0399C29.5827 48.2202 21.6754 47.1589 16.1762 42.1859L13.4933 45.1527C20.2131 51.2296 29.8746 52.5239 37.8888 48.6393L36.1441 45.0399ZM16.1762 42.1859C9.05472 35.7459 8.26565 24.914 14.204 17.5269L11.0865 15.0208C3.82809 24.0499 4.7912 37.2833 13.4933 45.1527L16.1762 42.1859ZM14.1286 17.6153L14.1301 17.6138L11.1632 14.9308L11.1618 14.9324L14.1286 17.6153ZM14.1301 17.6138L15.7133 15.8629L12.7465 13.18L11.1632 14.9308L14.1301 17.6138ZM15.633 15.9468C22.3885 9.29687 33.2448 8.99505 40.3668 15.4356L43.0497 12.4688C34.3467 4.59852 21.0835 4.96868 12.8269 13.0962L15.633 15.9468ZM40.3668 15.4356C47.4889 21.8762 48.2768 32.7081 42.3376 40.0961L45.4552 42.6023C52.7141 33.5726 51.7528 20.3391 43.0497 12.4688L40.3668 15.4356ZM42.413 40.0078L40.8297 41.7586L43.7965 44.4415L45.3798 42.6907L42.413 40.0078ZM43.6546 41.6166L38.5728 37.0211L35.8898 39.9879L40.9716 44.5834L43.6546 41.6166ZM38.7147 39.846L40.298 38.0952L37.3312 35.4122L35.7479 37.163L38.7147 39.846ZM37.4731 38.2371L40.8002 41.2458L43.4831 38.279L40.156 35.2703L37.4731 38.2371ZM43.71 41.0035C47.6322 36.0469 48.8025 29.7038 47.3315 23.9349L43.4555 24.9232C44.6301 29.5293 43.6924 34.5797 40.5733 38.5214L43.71 41.0035ZM44.7798 22.5255L40.4512 23.9212L41.6787 27.7282L46.0073 26.3325L44.7798 22.5255ZM42.9685 25.2111L42.2442 22.9641L38.4371 24.1913L39.1614 26.4383L42.9685 25.2111ZM40.9547 25.4811L45.2723 24.0882L44.0442 20.2814L39.7267 21.6743L40.9547 25.4811ZM46.5129 21.4364C45.4328 18.7598 43.7451 16.2816 41.4658 14.2204L38.7828 17.1872C40.6035 18.8337 41.945 20.8058 42.8036 22.9333L46.5129 21.4364ZM41.4658 14.2204C39.1001 12.0811 36.351 10.6194 33.464 9.83194L32.4114 13.691C34.7051 14.3166 36.8927 15.4779 38.7828 17.1872L41.4658 14.2204ZM30.9808 11.3483L30.0016 15.9866L33.9153 16.8129L34.8946 12.1746L30.9808 11.3483ZM32.3711 14.4428L30.061 13.9556L29.2357 17.8696L31.5458 18.3567L32.3711 14.4428ZM31.6053 16.3254L32.5796 11.7067L28.6657 10.8811L27.6914 15.4998L31.6053 16.3254ZM30.887 9.31145C25.0971 8.53951 19.048 10.3544 14.5928 14.6721L17.3765 17.5445C20.92 14.1103 25.7355 12.66 30.3583 13.2764L30.887 9.31145ZM14.6432 17.5917L17.9703 20.6004L20.6532 17.6336L17.3261 14.6249L14.6432 17.5917ZM17.8283 17.7756L16.245 19.5264L19.2119 22.2093L20.7951 20.4585L17.8283 17.7756ZM19.0696 19.3841L15.7418 16.3762L13.0595 19.3436L16.3873 22.3516L19.0696 19.3841ZM12.8321 16.6191C8.87509 21.6212 7.71912 28.0353 9.25268 33.8467L13.1203 32.8261C11.8959 28.1863 12.8222 23.0789 15.9692 19.1007L12.8321 16.6191Z" fill="#3772FF" mask="url(#path-2-inside-1_219_94914)"/>
</svg>
