<svg width="87" height="82" viewBox="0 0 87 82" fill="none" xmlns="http://www.w3.org/2000/svg">
<path d="M29.8456 12.2949C31.7552 12.2949 33.3032 10.8422 33.3032 9.05009C33.3032 7.25804 31.7552 5.8053 29.8456 5.8053V12.2949ZM57.1174 5.8053C55.2078 5.8053 53.6596 7.25804 53.6596 9.05009C53.6596 10.8422 55.2078 12.2949 57.1174 12.2949V5.8053ZM29.8456 76.1947C31.7552 76.1947 33.3032 74.7419 33.3032 72.9498C33.3032 71.1578 31.7552 69.7051 29.8456 69.7051V76.1947ZM57.1174 69.7051C55.2078 69.7051 53.6596 71.1578 53.6596 72.9498C53.6596 74.7419 55.2078 76.1947 57.1174 76.1947V69.7051ZM5.9375 28.3222C5.9375 30.1143 7.48557 31.5669 9.39522 31.5669C11.3049 31.5669 12.8529 30.1143 12.8529 28.3222H5.9375ZM12.8529 53.8408C12.8529 52.0487 11.3049 50.5959 9.39522 50.5959C7.48557 50.5959 5.9375 52.0487 5.9375 53.8408H12.8529ZM74.0304 28.3222C74.0304 30.1143 75.5785 31.5669 77.4882 31.5669C79.3978 31.5669 80.946 30.1143 80.946 28.3222H74.0304ZM80.946 53.8408C80.946 52.0487 79.3978 50.5959 77.4882 50.5959C75.5785 50.5959 74.0304 52.0487 74.0304 53.8408H80.946ZM14.5818 12.2949H29.8456V5.8053H14.5818V12.2949ZM57.1174 12.2949H72.3016V5.8053H57.1174V12.2949ZM29.8456 69.7051H14.5818V76.1947H29.8456V69.7051ZM72.3016 69.7051H57.1174V76.1947H72.3016V69.7051ZM12.8529 28.3222V13.9173H5.9375V28.3222H12.8529ZM12.8529 68.0826V53.8408H5.9375V68.0826H12.8529ZM74.0304 13.9173V28.3222H80.946V13.9173H74.0304ZM74.0304 53.8408V68.0826H80.946V53.8408H74.0304ZM14.5818 69.7051C13.627 69.7051 12.8529 68.9786 12.8529 68.0826H5.9375C5.9375 72.5629 9.8077 76.1947 14.5818 76.1947V69.7051ZM72.3016 76.1947C77.0756 76.1947 80.946 72.5629 80.946 68.0826H74.0304C74.0304 68.9786 73.2564 69.7051 72.3016 69.7051V76.1947ZM72.3016 12.2949C73.2564 12.2949 74.0304 13.0213 74.0304 13.9173H80.946C80.946 9.43716 77.0756 5.8053 72.3016 5.8053V12.2949ZM14.5818 5.8053C9.8077 5.8053 5.9375 9.43715 5.9375 13.9173H12.8529C12.8529 13.0213 13.627 12.2949 14.5818 12.2949V5.8053Z" fill="#F2F3F7"/>
<path d="M41.6255 41.0033C31.7448 41.0033 23.7109 48.5755 23.7109 57.8883C23.7109 59.6291 25.1883 61.1086 27.1276 61.1086H59.3554C61.2023 61.1086 62.7722 59.7161 62.7722 57.8883C62.7722 48.5755 54.7382 41.0033 44.8574 41.0033H41.6255ZM43.2872 19.3319C37.6542 19.3319 33.1295 23.5967 33.1295 28.9058C33.1295 34.2151 37.6542 38.5669 43.2872 38.5669C48.9202 38.5669 53.4449 34.3021 53.4449 28.9058C53.4449 23.6838 48.9202 19.3319 43.2872 19.3319Z" fill="#3772FF"/>
</svg>
