<svg width="81" height="88" viewBox="0 0 81 88" fill="none" xmlns="http://www.w3.org/2000/svg">
<path d="M80.999 28.1191C80.1457 51.8286 70.1206 70.7369 49.2133 83.8999C47.6766 84.8651 45.9442 85.5616 44.4814 86.6116C41.5891 88.687 38.7411 88.2133 36.0779 86.4844C31.4679 83.4968 26.6844 80.6436 22.5251 77.1363C9.82553 66.4482 2.92538 52.6595 0.557613 36.7353C-0.0149371 32.8744 0.0663283 28.9181 -0.0149369 25.0007C-0.0481817 23.3142 1.12647 22.3596 2.78502 21.9353C3.67155 21.7091 4.53591 21.4121 5.41875 21.1681C11.7944 19.4003 15.6618 14.5177 15.7062 8.13599C15.7062 7.36877 15.6766 6.59802 15.7616 5.84141C15.9056 4.54031 16.5853 3.67763 18.0148 3.42307C24.4643 2.28108 30.8473 0.679464 37.3375 0.103165C41.892 -0.299891 46.5906 0.573397 51.2006 1.08252C54.477 1.43608 57.7092 2.18915 60.9709 2.70888C64.2953 3.23569 65.2705 4.23979 65.2151 7.53495C65.1228 13.4853 67.69 17.873 73.3416 20.4115C74.9186 21.0564 76.5374 21.6032 78.188 22.0485C80.6038 22.7804 80.951 23.194 80.9806 25.6618C81.0064 26.4856 80.999 27.3094 80.999 28.1191ZM58.5514 8.83957C46.9415 5.5232 35.0879 5.54442 23.1826 8.35166C22.248 8.57441 21.9525 8.97393 21.8675 9.89318C21.0327 18.573 16.1236 24.4067 7.44299 26.9064C6.02823 27.313 5.56281 27.8433 5.79183 29.2151C6.37915 32.6976 6.72638 36.2191 7.42452 39.6769C11.1738 58.327 22.0966 71.9319 39.2509 81.0679C39.5902 81.209 39.9568 81.2798 40.3267 81.2756C40.6967 81.2713 41.0614 81.1921 41.397 81.0431C62.8437 70.0369 72.9464 52.2246 74.7785 29.4767C74.8931 28.0625 74.4646 27.3554 72.891 26.8993C67.0251 25.2376 62.7882 21.6631 60.583 16.1476C59.6595 13.8672 59.2421 11.4135 58.5514 8.83957Z" fill="#F1F2F6"/>
<path d="M46.7917 34.9251C46.6255 35.8125 46.511 36.4419 46.3484 37.3116C44.1099 37.3116 41.8641 37.3116 39.6182 37.3116C38.5728 37.3116 37.5681 37.3859 37.376 38.5986C37.1839 39.8113 37.2504 41.0169 38.728 41.5225C40.2055 42.0281 41.7163 42.5478 43.2493 42.9367C47.9516 44.0858 48.5426 49.2619 46.4001 52.1292C45.6355 53.1545 43.6962 53.7238 42.2372 53.8475C39.8952 54.042 37.4942 53.7591 35.1375 53.4939C34.7164 53.448 34.0811 52.5429 34.1106 52.0797C34.1402 51.6166 34.8716 50.8564 35.3407 50.821C37.355 50.6955 39.3752 50.6814 41.3913 50.7786C42.7321 50.8316 43.663 50.2554 43.7923 49.1098C43.9216 47.9643 43.7258 46.6349 42.1189 46.1965C40.5121 45.7581 38.8462 45.2384 37.2467 44.6691C34.7497 43.7817 33.4125 41.4588 33.6526 38.5844C33.8595 36.1095 35.0526 34.6953 37.8932 34.2958C40.8692 33.8205 43.921 34.0363 46.7917 34.9251Z" fill="#3772FF"/>
<path d="M17.4357 53.6177L18.0341 50.7468C20.3353 50.7468 22.5849 50.7468 24.8382 50.7468C25.9463 50.7468 27.1505 50.7114 27.3648 49.3007C27.579 47.89 27.2983 46.6102 25.5696 46.1187C23.9923 45.6555 22.415 45.1818 20.8783 44.6055C17.432 43.315 15.9729 38.2238 18.5032 35.618C19.3712 34.7271 21.0889 34.3099 22.4556 34.225C24.6456 34.1329 26.8396 34.2513 29.0049 34.5786C29.5072 34.6458 30.2238 35.5579 30.2201 36.0741C30.2201 36.4913 29.3041 37.2055 28.7426 37.255C26.9806 37.4106 25.1965 37.3222 23.4197 37.3116C22.2635 37.3116 21.2293 37.3469 21.0224 38.8354C20.8377 40.1719 21.196 41.1795 22.5221 41.6639C23.8482 42.1483 25.3184 42.4912 26.7036 42.9438C30.5821 44.213 32.1927 47.8158 30.523 51.4291C29.8212 52.9424 28.5653 53.653 26.892 53.6601C23.8297 53.6672 20.7786 53.6318 17.4357 53.6177Z" fill="#3772FF"/>
<path d="M50.9394 43.0533C50.9394 40.7623 51.0391 38.4571 50.9061 36.1802C50.8175 34.6705 51.4972 34.4513 52.8343 34.4442C54.1715 34.4371 54.6813 34.7271 54.6517 36.1095C54.5631 40.2815 54.6924 44.457 54.5852 48.6254C54.5409 50.3154 55.2649 50.8139 56.8533 50.7468C58.5044 50.6937 60.1778 50.7821 61.8068 50.722C62.9445 50.6796 63.1033 51.2488 63.0996 52.1362C63.0959 53.0237 62.9777 53.6 61.8252 53.5752C59.3799 53.5187 56.9308 53.6247 54.4855 53.5399C52.1473 53.455 50.9615 52.1716 50.9431 49.9159C50.9246 47.6602 50.9394 45.3444 50.9394 43.0533Z" fill="#3772FF"/>
</svg>
