<svg width="93" height="66" viewBox="0 0 93 66" fill="none" xmlns="http://www.w3.org/2000/svg">
<path d="M81.5176 0C81.6609 0.0542705 81.8023 0.107666 81.9475 0.162812C82.7873 0.485809 83.2997 1.0539 83.4326 1.88896C83.4685 2.15019 83.4834 2.41351 83.4772 2.67676C83.4772 13.5005 83.4772 24.3254 83.4772 35.1515V35.682L78.6935 35.1008V4.42567H4.80643V52.7763H59.5086C59.7221 54.2731 59.9262 55.7087 60.1378 57.188H2.91612C1.20801 57.188 0.648132 56.8431 0 55.4085V1.75066C0.331183 0.842068 0.983112 0.245968 1.99564 0H81.5176Z" fill="#F2F3F7"/>
<path d="M76.4913 66C75.6069 65.8591 74.713 65.7575 73.84 65.572C67.928 64.3132 63.2535 59.6976 62.2476 54.1541C61.014 47.3642 64.9607 40.9095 71.8956 38.3728C80.6259 35.1796 90.5794 40.0604 92.6149 48.538C92.7782 49.2164 92.875 49.9088 93.0031 50.5942V52.7825C92.969 52.8777 92.9427 52.9752 92.9243 53.074C92.6199 56.0336 91.3192 58.8313 89.2044 61.0747C87.0897 63.3182 84.2669 64.895 81.1317 65.5842C80.2928 65.7698 79.4302 65.8635 78.579 66H76.4913ZM69.136 50.6292L77.2249 58.101C80.8499 54.7686 84.4929 51.4187 88.1046 48.0995L85.4115 45.6232L77.2761 53.1423L71.8481 48.1433L69.136 50.6292Z" fill="#3772FF"/>
<path d="M45.269 46.1694H11.9704C11.959 46.0215 11.939 45.8823 11.939 45.7422C11.939 43.1749 11.9324 40.6075 11.9466 38.0393C11.95 37.7953 12.0216 37.5562 12.1545 37.3452C15.4891 32.3041 20.3211 29.3963 26.6933 28.6934C26.866 28.6741 27.0378 28.6531 27.2114 28.6383C27.3851 28.6234 27.5559 28.6155 27.7343 28.5857C25.0421 28.275 22.8093 27.1922 21.1325 25.2175C19.4557 23.2427 18.8113 20.994 19.1995 18.5221C19.9064 14.0246 24.2222 10.7955 29.1682 11.0108C33.8531 11.2148 37.8662 14.8404 38.1547 19.1969C38.4612 23.8178 34.897 28.0281 29.7091 28.5551C30.7994 28.7302 32.0814 28.8571 33.3208 29.1521C38.4869 30.3854 42.4022 33.1786 45.1295 37.3959C45.2333 37.555 45.2917 37.7357 45.2994 37.9211C45.3101 40.5763 45.312 43.2315 45.3051 45.8867C45.2996 45.9815 45.2875 46.0759 45.269 46.1694Z" fill="#3772FF"/>
<path d="M47.7266 19.7554V17.6301H69.1368V19.7554H47.7266Z" fill="#F2F3F7"/>
<path d="M47.7188 32.9756V30.8363H69.1299V32.9756H47.7188Z" fill="#F2F3F7"/>
<path d="M69.1341 26.386H47.7344V24.2344H69.1341V26.386Z" fill="#F2F3F7"/>
<path d="M47.7188 39.5598V37.4336H54.8235V39.5598H47.7188Z" fill="#F2F3F7"/>
</svg>
