<svg width="93" height="84" viewBox="0 0 93 84" fill="none" xmlns="http://www.w3.org/2000/svg">
<g clip-path="url(#clip0_544_93801)">
<path d="M24.0915 33.8639L24.0915 33.8639L44.9867 24.8591C45.5427 24.6195 46.1881 24.6195 46.7441 24.8591L67.6393 33.8639L67.7382 33.6343L67.6393 33.8639C67.8005 33.9333 67.8371 34.0589 67.8111 34.1653C67.7842 34.2754 67.6834 34.3856 67.4937 34.3856H24.237C24.0473 34.3856 23.9465 34.2754 23.9196 34.1653C23.8937 34.0589 23.9303 33.9333 24.0915 33.8639ZM62.3739 36.1865C62.574 36.1865 62.6979 36.3302 62.6979 36.4622V51.0519C62.6979 51.184 62.5741 51.3276 62.3739 51.3276H59.2551C59.055 51.3276 58.931 51.184 58.931 51.0519V41.1528C58.931 39.5547 57.5235 38.2958 55.8345 38.2958C54.1453 38.2958 52.7378 39.5547 52.7378 41.1528V51.0519C52.7378 51.184 52.6139 51.3276 52.4137 51.3276H49.2927C49.0926 51.3276 48.9687 51.184 48.9687 51.0519V41.1518C48.9687 39.5538 47.5611 38.295 45.8721 38.295C44.183 38.295 42.7754 39.5538 42.7754 41.1518V51.0519C42.7754 51.184 42.6515 51.3276 42.4515 51.3276H39.3301C39.1301 51.3276 39.0062 51.184 39.0062 51.0519V41.1512C39.0062 39.5532 37.5986 38.2944 35.9095 38.2944C34.2205 38.2944 32.813 39.5533 32.813 41.1512V51.0519C32.813 51.184 32.689 51.3276 32.4889 51.3276H29.3625C29.1624 51.3276 29.0384 51.184 29.0384 51.0519V36.4622C29.0384 36.3302 29.1624 36.1865 29.3625 36.1865H62.3739ZM26.1904 53.4089C26.1904 53.2769 26.3143 53.1332 26.5145 53.1332H65.2192C65.4193 53.1332 65.5432 53.2769 65.5432 53.4089V54.9645C65.5432 55.0963 65.4193 55.24 65.2192 55.24H26.5145C26.3143 55.24 26.1904 55.0964 26.1904 54.9645V53.4089ZM23.3438 57.3182C23.3438 57.1862 23.4677 57.0425 23.6677 57.0425H68.0656C68.2658 57.0425 68.3897 57.1862 68.3897 57.3182V58.8737C68.3897 59.0058 68.2658 59.1494 68.0656 59.1494H23.6677C23.4677 59.1494 23.3438 59.0058 23.3438 58.8737V57.3182Z" fill="white" stroke="black" stroke-width="0.5"/>
<path d="M46.2604 0.296868L47.2246 2.94381L50.2713 2.96551C50.6658 2.96825 50.8293 3.42915 50.512 3.64389L48.0609 5.30143L48.9798 7.96159C49.0988 8.30577 48.6706 8.59109 48.3496 8.38084L45.871 6.75821L43.3923 8.38084C43.0715 8.59084 42.6431 8.30602 42.7622 7.96159L43.681 5.30143L41.2299 3.64389C40.9127 3.42915 41.0761 2.96825 41.4707 2.96551L44.5174 2.94381L45.4815 0.296868C45.606 -0.0458148 46.1357 -0.0458148 46.2604 0.296868Z" fill="#3772FF"/>
<path d="M87.3152 37.895L88.2793 40.5419L91.3262 40.5636C91.7207 40.5664 91.8842 41.0273 91.5668 41.242L89.1157 42.8996L90.0346 45.5599C90.1536 45.9041 89.7256 46.1894 89.4044 45.9791L86.9257 44.3565L84.4471 45.9791C84.1262 46.1891 83.6979 45.9043 83.8169 45.5599L84.7358 42.8996L82.2847 41.242C81.9673 41.0273 82.1308 40.5664 82.5253 40.5636L85.5721 40.5419L86.5363 37.895C86.6608 37.5526 87.1905 37.5526 87.3152 37.895Z" fill="#3772FF"/>
<path d="M5.19802 37.895L6.16215 40.5419L9.20894 40.5636C9.60357 40.5664 9.76699 41.0273 9.44969 41.242L6.99854 42.8996L7.91746 45.5599C8.03647 45.9041 7.60833 46.1894 7.28722 45.9791L4.80857 44.3565L2.3299 45.9791C2.00908 46.1891 1.58067 45.9043 1.69968 45.5599L2.6186 42.8996L0.167438 41.242C-0.14985 41.0273 0.0135616 40.5664 0.408198 40.5636L3.45499 40.5419L4.41911 37.895C4.54384 37.5526 5.07357 37.5526 5.19802 37.895Z" fill="#3772FF"/>
<path d="M11.362 18.2591L12.3261 20.9061L15.3728 20.9278C15.7675 20.9306 15.9308 21.3914 15.6136 21.6062L13.1625 23.2637L14.0814 25.9239C14.2004 26.2681 13.7722 26.5533 13.4511 26.3431L10.9725 24.7205L8.49391 26.3431C8.17309 26.5531 7.7447 26.2683 7.86372 25.9239L8.78261 23.2637L6.3315 21.6062C6.01421 21.3914 6.17763 20.9306 6.57225 20.9278L9.61897 20.9061L10.5831 18.2591C10.7078 17.9165 11.237 17.9165 11.362 18.2591Z" fill="#3772FF"/>
<path d="M67.4561 4.5025L68.4203 7.14949L71.467 7.17119C71.8617 7.17394 72.0251 7.63484 71.7078 7.84959L69.2566 9.50717L70.1756 12.1674C70.2946 12.5115 69.8664 12.7969 69.5453 12.5867L67.0667 10.964L64.5877 12.5867C64.2669 12.7967 63.8384 12.5118 63.9574 12.1674L64.8763 9.50717L62.4252 7.84959C62.108 7.63484 62.2713 7.17394 62.666 7.17119L65.7128 7.14949L66.6769 4.5025C66.8017 4.16006 67.3308 4.16006 67.4561 4.5025Z" fill="#3772FF"/>
<path d="M81.7002 18.2591L80.7362 20.9061L77.6895 20.9278C77.2948 20.9306 77.1314 21.3914 77.4487 21.6062L79.8998 23.2637L78.9809 25.9239C78.8619 26.2681 79.29 26.5533 79.6112 26.3431L82.0897 24.7205L84.5683 26.3431C84.8891 26.5531 85.3175 26.2683 85.1985 25.9239L84.2796 23.2637L86.7308 21.6062C87.0481 21.3914 86.8847 20.9306 86.49 20.9278L83.4433 20.9061L82.4791 18.2591C82.3544 17.9165 81.8251 17.9165 81.7002 18.2591Z" fill="#3772FF"/>
<path d="M25.6066 4.50225L24.6425 7.14924L21.5957 7.17094C21.2011 7.17369 21.0376 7.6346 21.355 7.84934L23.8061 9.50693L22.8872 12.1672C22.7682 12.5113 23.1964 12.7966 23.5174 12.5864L25.9961 10.9637L28.4747 12.5864C28.7956 12.7964 29.224 12.5116 29.1049 12.1672L28.186 9.50693L30.6373 7.84934C30.9545 7.6346 30.791 7.17369 30.3965 7.17094L27.3496 7.14924L26.3855 4.50225C26.2605 4.15981 25.7313 4.15981 25.6066 4.50225Z" fill="#3772FF"/>
<path d="M82.4793 55.8584L83.4434 58.5053L86.4901 58.527C86.8848 58.5298 87.0482 58.9906 86.7309 59.2054L84.2798 60.863L85.1987 63.5231C85.3177 63.8679 84.8895 64.1527 84.5684 63.9424L82.0898 62.3198L79.6112 63.9424C79.2904 64.1524 78.8619 63.8677 78.9809 63.5231L79.8998 60.863L77.4487 59.2054C77.1314 58.9906 77.2948 58.5298 77.6895 58.527L80.7362 58.5053L81.7003 55.8584C81.8251 55.516 82.3545 55.516 82.4793 55.8584Z" fill="#3772FF"/>
<path d="M10.5831 55.8584L9.61902 58.5053L6.57225 58.527C6.17763 58.5298 6.01421 58.9906 6.3315 59.2054L8.78263 60.863L7.86373 63.5231C7.74472 63.8679 8.17285 64.1527 8.49395 63.9424L10.9726 62.3198L13.4513 63.9424C13.772 64.1524 14.2005 63.8677 14.0815 63.5231L13.1626 60.863L15.6137 59.2054C15.9309 58.9906 15.7676 58.5298 15.3729 58.527L12.3262 58.5053L11.362 55.8584C11.237 55.516 10.7079 55.516 10.5831 55.8584Z" fill="#3772FF"/>
<path d="M46.2603 75.495L47.2244 78.1418L50.271 78.1635C50.6657 78.1663 50.829 78.6271 50.5118 78.8419L48.0608 80.4994L48.9796 83.1595C49.0986 83.5037 48.6705 83.7889 48.3493 83.5787L45.8708 81.9561L43.3923 83.5787C43.0715 83.7887 42.6431 83.5039 42.7621 83.1595L43.681 80.4994L41.2299 78.8419C40.9127 78.6271 41.0761 78.1663 41.4707 78.1635L44.5174 78.1418L45.4814 75.495C45.6058 75.152 46.1356 75.152 46.2603 75.495Z" fill="#3772FF"/>
<path d="M26.3853 69.6222L27.3494 72.2692L30.396 72.2909C30.7907 72.2935 30.9541 72.7545 30.6368 72.9693L28.1858 74.6268L29.1046 77.2869C29.2237 77.631 28.7955 77.9163 28.4745 77.7061L25.9958 76.0835L23.5173 77.7061C23.1965 77.9161 22.7681 77.6313 22.8871 77.2869L23.806 74.6268L21.3549 72.9693C21.0377 72.7545 21.2011 72.2935 21.5957 72.2909L24.6424 72.2694L25.6064 69.6226C25.7311 69.2793 26.2608 69.2793 26.3853 69.6222Z" fill="#3772FF"/>
<path d="M66.669 69.622L65.7048 72.2689L62.6581 72.2906C62.2636 72.2933 62.1001 72.7543 62.4175 72.9689L64.8685 74.6264L63.9496 77.2865C63.8306 77.6307 64.2587 77.9161 64.5798 77.7058L67.0583 76.0832L69.5369 77.7058C69.8577 77.9158 70.2862 77.6311 70.1672 77.2865L69.2483 74.6264L71.6993 72.9689C72.0166 72.7543 71.8532 72.2933 71.4586 72.2906L68.4119 72.2692L67.4478 69.6222C67.3228 69.2791 66.7937 69.2791 66.669 69.622Z" fill="#3772FF"/>
</g>
<defs>
<clipPath id="clip0_544_93801">
<rect width="93" height="84" fill="white"/>
</clipPath>
</defs>
</svg>
