<svg width="20" height="19" viewBox="0 0 20 19" fill="none" xmlns="http://www.w3.org/2000/svg">
<path d="M19.6213 0.249763C19.2802 -0.0390705 18.7434 -0.0800075 18.1931 0.140597C17.6109 0.368025 1.7 7.19086 1.05183 7.47969C0.933572 7.52063 -0.0853042 7.90271 0.0102154 8.75784C0.105735 9.52882 0.933572 9.84949 1.03364 9.89498L5.07958 11.28C5.3434 12.1647 6.33271 15.4647 6.55104 16.1652C6.68749 16.6041 6.91037 17.1795 7.29927 17.3023C7.45184 17.357 7.61603 17.3708 7.7756 17.3425C7.93516 17.3142 8.08456 17.2447 8.20899 17.1408L10.6743 14.8438L14.6679 17.9664L14.7612 18.0232C15.0058 18.1371 15.2715 18.1983 15.5413 18.2029C15.7299 18.2031 15.9168 18.1668 16.0916 18.096C16.4807 17.9233 16.789 17.6084 16.9536 17.2159L19.9352 1.7053C20.1171 0.877464 19.8647 0.454448 19.6213 0.249763ZM8.6411 11.8258L7.27653 15.4647L5.91197 10.9161L16.3736 3.18358L8.6411 11.8258Z" fill="black"/>
</svg>
