<svg width="184" height="43" viewBox="0 0 184 43" fill="none" xmlns="http://www.w3.org/2000/svg">
<g clip-path="url(#clip0_354_90690)">
<g filter="url(#filter0_d_354_90690)">
<path d="M36.6234 31.9315H29.6211L33.9307 9.23206H40.6594L36.6234 31.9315Z" fill="black"/>
<path d="M61.3936 9.70175C59.4137 9.06517 57.3132 8.75138 55.1997 8.77641C48.4709 8.77641 43.6507 11.7877 43.6507 16.4196C43.6507 19.6609 47.1458 21.5115 49.5711 22.693C52.2638 23.8484 53.0722 24.5437 53.0722 25.469C53.0722 27.0897 50.9205 27.785 49.0362 27.785C46.8034 27.7792 44.5959 27.3788 42.5505 26.6087L41.736 26.1434L40.6602 31.2406C42.277 31.9359 45.2372 32.4169 48.2034 32.4169C55.4975 32.4169 60.0502 29.4056 60.0502 24.5437C60.0502 21.9995 58.1659 19.9083 54.3973 18.2702C51.966 17.1097 50.6226 16.4196 50.6226 15.489C50.6226 14.5585 51.9721 13.6383 54.6648 13.6383C56.4253 13.6513 58.1652 13.9659 59.7828 14.5637L60.3177 14.7937L61.3936 9.70175Z" fill="black"/>
<path d="M70.5522 23.8231C71.087 22.4325 73.2388 17.3405 73.2388 17.3405L74.0472 15.2493L74.5882 17.1C74.5882 17.1 75.9315 22.6625 76.2051 23.8178L70.5522 23.8231ZM78.8978 9.23206H73.5123C71.8955 9.23206 70.5522 9.69734 70.0112 11.088L59.7812 31.9315H67.0753L68.4186 28.455H77.3052C77.5727 29.1503 78.1137 31.9315 78.1137 31.9315H84.5507L78.8978 9.23206V9.23206Z" fill="black"/>
<path d="M23.9687 9.23206L17.2338 24.7484L16.4133 21.5071C14.7766 17.44 11.4165 14.0535 7.00391 12.0237L13.1978 31.942H20.4919L31.2385 9.23206H23.9687Z" fill="black"/>
<path d="M11.0384 9.2392H0V9.70448C8.61916 11.5552 14.2721 16.1871 16.6973 21.7286L14.266 11.3094C14.1098 10.6845 13.6968 10.129 13.1028 9.74492C12.5088 9.3608 11.7736 9.17382 11.0323 9.21829L11.0384 9.2392Z" fill="#4F4F4F"/>
<path d="M149.864 6.27661H132.723V32.7297H149.864V6.27661Z" fill="#858585"/>
<path d="M133.814 19.4989C133.811 16.9561 134.476 14.4455 135.76 12.1551C137.045 9.86464 138.914 7.85359 141.23 6.2724C138.776 4.62007 135.899 3.49609 132.837 2.99411C129.776 2.49214 126.62 2.62671 123.631 3.38662C120.643 4.14653 117.909 5.50976 115.657 7.36271C113.405 9.21565 111.701 11.5046 110.687 14.0389C109.672 16.5732 109.376 19.2793 109.824 21.9318C110.272 24.5843 111.451 27.1063 113.261 29.2876C115.072 31.4689 117.463 33.2464 120.235 34.4719C123.006 35.6974 126.078 36.3354 129.195 36.3327C133.566 36.3384 137.809 35.0665 141.23 32.7255C138.909 31.1482 137.036 29.1379 135.751 26.8466C134.467 24.5552 133.804 22.0428 133.814 19.4989V19.4989Z" fill="#494949"/>
<path d="M172.901 19.4958C172.902 21.7068 172.397 23.8965 171.414 25.9394C170.431 27.9824 168.989 29.8387 167.172 31.4022C165.354 32.9656 163.196 34.2055 160.82 35.051C158.445 35.8965 155.899 36.331 153.328 36.3296C148.957 36.3353 144.713 35.0634 141.293 32.7224C143.606 31.1395 145.475 29.1281 146.759 26.838C148.043 24.548 148.71 22.0383 148.71 19.4958C148.71 16.9533 148.043 14.4436 146.759 12.1536C145.475 9.86354 143.606 7.85217 141.293 6.26927C144.174 4.31397 147.638 3.09699 151.287 2.75799C154.936 2.41898 158.622 2.97171 161.922 4.35272C165.222 5.73373 168.003 7.88707 169.945 10.5656C171.887 13.2441 172.911 16.3393 172.901 19.4958V19.4958Z" fill="#AAAAAA"/>
<path d="M97.407 0H95.2188V39H97.407V0Z" fill="#232323"/>
</g>
</g>
<defs>
<filter id="filter0_d_354_90690" x="-4" y="0" width="180.902" height="47" filterUnits="userSpaceOnUse" color-interpolation-filters="sRGB">
<feFlood flood-opacity="0" result="BackgroundImageFix"/>
<feColorMatrix in="SourceAlpha" type="matrix" values="0 0 0 0 0 0 0 0 0 0 0 0 0 0 0 0 0 0 127 0" result="hardAlpha"/>
<feOffset dy="4"/>
<feGaussianBlur stdDeviation="2"/>
<feComposite in2="hardAlpha" operator="out"/>
<feColorMatrix type="matrix" values="0 0 0 0 0 0 0 0 0 0 0 0 0 0 0 0 0 0 0.25 0"/>
<feBlend mode="normal" in2="BackgroundImageFix" result="effect1_dropShadow_354_90690"/>
<feBlend mode="normal" in="SourceGraphic" in2="effect1_dropShadow_354_90690" result="shape"/>
</filter>
<clipPath id="clip0_354_90690">
<rect width="184" height="43" fill="white"/>
</clipPath>
</defs>
</svg>
